<?xml version="1.0" standalone="no"?>
<!DOCTYPE svg PUBLIC "-//W3C//DTD SVG 20010904//EN"
 "http://www.w3.org/TR/2001/REC-SVG-20010904/DTD/svg10.dtd">
<svg version="1.0" xmlns="http://www.w3.org/2000/svg"
 width="106.000000pt" height="106.000000pt" viewBox="0 0 106.000000 106.000000"
 preserveAspectRatio="xMidYMid meet">
<metadata>
Created by potrace 1.14, written by Peter Selinger 2001-2017
</metadata>
<g transform="translate(0.000000,106.000000) scale(0.100000,-0.100000)"
fill="#000000" stroke="none">
<path d="M411 924 c-165 -44 -298 -187 -317 -341 l-7 -53 107 0 106 0 0 28 c0
15 13 49 29 74 84 132 318 132 402 0 16 -25 29 -59 29 -74 l0 -28 106 0 107 0
-7 53 c-14 114 -104 241 -212 299 -103 56 -233 72 -343 42z"/>
<path d="M411 514 c-166 -44 -295 -188 -318 -350 l-6 -44 107 0 c100 0 106 1
106 20 0 34 37 96 75 128 86 70 224 70 310 0 38 -32 75 -94 75 -128 0 -19 6
-20 106 -20 l107 0 -6 44 c-17 121 -106 250 -215 309 -101 55 -231 71 -341 41z"/>
</g>
</svg>
